<svg width="80" height="80" viewBox="0 0 80 80" fill="none" xmlns="http://www.w3.org/2000/svg">
<rect x="9.29883" y="49.9741" width="14.4935" height="20.9351" fill="#146EF6"/>
<rect x="30.9092" y="40" width="14.5455" height="30.9091" fill="white"/>
<rect x="52.7275" y="27.2727" width="16.3636" height="43.6364" fill="#146EF6"/>
<path d="M58.8024 6.28848C59.2138 5.17663 60.7864 5.17663 61.1978 6.28848L62.9007 10.8904C63.03 11.24 63.3056 11.5156 63.6552 11.6449L68.2571 13.3478C69.369 13.7592 69.369 15.3318 68.2571 15.7432L63.6552 17.4461C63.3056 17.5754 63.03 17.851 62.9007 18.2006L61.1978 22.8025C60.7864 23.9144 59.2138 23.9144 58.8024 22.8025L57.0995 18.2006C56.9702 17.851 56.6945 17.5754 56.345 17.4461L51.7431 15.7432C50.6312 15.3318 50.6312 13.7592 51.7431 13.3478L56.345 11.6449C56.6945 11.5156 56.9702 11.24 57.0995 10.8904L58.8024 6.28848Z" fill="white"/>
</svg>
